<svg width="24px" height="24px" viewBox="0 0 24 24" id="_24x24_On_Light_Achievements" data-name="24x24/On Light/Achievements" xmlns="http://www.w3.org/2000/svg">
  <rect id="view-box" width="24" height="24" fill="none"/>
  <path id="Shape" d="M6.75,18a.75.75,0,0,1,0-1.5H9s0-.007,0-.011V13.456A6.278,6.278,0,0,1,3.871,9.418,4.748,4.748,0,0,1,0,4.75v-2A.751.751,0,0,1,.75,2H3.087L3,.8A.75.75,0,0,1,3.75,0h12A.75.75,0,0,1,16.5.8L16.412,2H18.75a.75.75,0,0,1,.751.751v2a4.752,4.752,0,0,1-3.871,4.669A6.279,6.279,0,0,1,10.5,13.455v3.034s0,.007,0,.011h2.25a.75.75,0,0,1,0,1.5ZM4.989,7.567a4.774,4.774,0,0,0,9.523,0L14.944,1.5H4.556Zm11.019.106c0,.026,0,.052-.006.077a3.253,3.253,0,0,0,2-3V3.5H16.305ZM1.5,4.75A3.249,3.249,0,0,0,3.454,7.732L3.164,3.5H1.5Z" transform="translate(2.25 3.25)" fill="#141124"/>
</svg>
